# xmcd
#
# Track frame offsets: 
#        150
#        36217
#        51163
#        81401
#        120252
#        161109
#        205820
#        245688
#        280087
#        315046
#
# Disc length: 4607 seconds
#
# Revision: 19
# Processed by: cddbd v1.5.2PL0 Copyright (c) Steve Scherf et al.
# Submitted via: ExactAudioCopyFreeDBPlugin 1.0
#
DISCID=8011fd0a
DTITLE=Andreas Fröhlich - Eragon [CD04)
DYEAR=2005
DGENRE=Hörbuch
TTITLE0=Totenwache (Teil 3)
TTITLE1=Der Wahnsinn des Lebens
TTITLE2=Des Reiters Klinge (Teil 1)
TTITLE3=Des Reiters Klinge (Teil 2)
TTITLE4=Des Reiters Klinge (Teil 3)
TTITLE5=Des Reiters Klinge (Teil 4)
TTITLE6=Des Reiters Klinge (Teil 5)
TTITLE7=Ein Sattel für Saphira
TTITLE8=Therinsford (Teil 1)
TTITLE9=Therinsford (Teil 2)
EXTD=
EXTT0=
EXTT1=
EXTT2=
EXTT3=
EXTT4=
EXTT5=
EXTT6=
EXTT7=
EXTT8=
EXTT9=
PLAYORDER=
